# xmcd CD database file
# Copyright (C) 1993-1998 Ti Kan
#
# Track frame offsets:
#	150
#	9359
#	32189
#	53672
#	70229
#	85167
#	103874
#	112078
#	153676
#	177529
#	191818
#	199491
#	208526
#	227560
#	239937
#	245522
#	247741
#	260233
#	281256
#	308333
#	322738
#
# Disc length: 4431 seconds
#
# Revision: 2
# Processed by: cddbd v1.4b41PL1 Copyright (c) Steve Scherf et al.
# Submitted via: CDValet v3.31 - Copyright (c) 1997 Greg Leichner
#
DISCID=2d114d15
DTITLE=Various Artist - X-Mix Issue Thirty 1995
DYEAR=1900
DGENRE=
TTITLE0=The Latin House Of X
TTITLE1=
TTITLE2=
TTITLE3=Be My Lover
TTITLE4=
TTITLE5=Weive Got It Goin' On
TTITLE6=
TTITLE7=1995 Rewind Medley
TTITLE8=
TTITLE9=Macerena/Safety Dance
TTITLE10=
TTITLE11=
TTITLE12=
TTITLE13=Mobile Madness Pt. 2
TTITLE14=
TTITLE15=
TTITLE16=
TTITLE17=Diamond Girl
TTITLE18=Missing
TTITLE19=It's A Beautiful Life
TTITLE20=
EXTD=
EXTT0=
EXTT1=
EXTT2=
EXTT3=
EXTT4=
EXTT5=
EXTT6=
EXTT7=
EXTT8=
EXTT9=
EXTT10=
EXTT11=
EXTT12=
EXTT13=
EXTT14=
EXTT15=
EXTT16=
EXTT17=
EXTT18=
EXTT19=
EXTT20=
PLAYORDER=
